<svg xmlns="http://www.w3.org/2000/svg" viewBox="0 0 123.957 93.558"><path fill="none" d="M0 96.006V0h123.957v96.006H0zm76.157-28.793c.352 3.097.22 10.44-.213 13.39-.537 3.674-1.645 7.11-4.092 10-.057.067-.053.186-.097.353 4.738.34 8.003-2.077 10.77-5.64 2.84 3.3 6.146 5.482 10.782 5.273V69.91c2.707.76 4.883 2.165 7.102 3.523 4.16-6.95 9.75-11.594 18.19-12.102-.18-.44-.31-.76-.42-1.07-.66-1.8-1.28-3.64-1.29-5.56-.07-11.82-.08-23.65-.12-35.48 0-.53.16-.91.54-1.28 1.48-1.42 2.93-2.86 4.4-4.31.24-.23.46-.49.81-.87-5.92-1.07-10.99-3.39-14.62-8.29L93.57 14.83l-.267-.135V10.51h-1.42c0 1.684-.022 3.28.01 4.876.014.586-.18.963-.67 1.288-1.216.81-2.396 1.67-3.6 2.5-.206.14-.45.224-.748.37-.114-.888-.197-1.645-.31-2.397-.448-2.966-1.313-5.762-3.355-8.068-1.565-1.77-3.407-2.96-5.83-3.34-7.516-1.19-15.13 5.15-14.084 13.59.096.77.33 1.52.498 2.28.35-.74.46-1.47.71-2.14.252-.68.6-1.33.98-1.95 1.975-3.24 7.415-3.46 9.48.33.442.81.838 1.71.98 2.61.235 1.46.313 2.97.333 4.46.028 2.19-.052 4.38-.09 6.57-.004.2-.036.41-.06.65-.256.04-.49.1-.724.11-.73.03-1.463 0-2.19.06-3.326.28-6.026 2.67-6.67 5.94-.61 3.12-.026 6.08 1.313 8.92.038.08.136.13.325.31.41-1.82 1.26-3.25 2.91-4.04 1.62-.77 3.31-.88 5.06-.61v13.39c-.3.05-.53.08-.77.11-.24.04-.48.07-.72.13-3.77.9-6.54 3.14-8.42 6.48-1.74 3.1-2.36 6.51-2.52 10.02 0 .07.08.14.13.23 3.99-4.43 8.38-6.58 12.33-6.01zM29.56 58.45c-3.38.05-6.632.49-9.743 1.696-3.15 1.222-5.957 2.99-8.476 5.23-2.7 2.406-5.87 6.355-6.05 7.48 9.74-5.298 19.44-5.223 29.17.373 6.9-6.25 15.27-9.23 24.44-10.58-.21-.52-.35-.91-.51-1.28-1-2.33-1.53-4.72-1.51-7.29.07-7.93.06-15.86.01-23.79-.02-3.09-.15-6.19-.39-9.27-.24-3.03-.88-6.02-2.27-8.74-2.34-4.58-6.15-7.17-11.26-7.73-4.14-.45-8.26.1-12.38.51-4.39.43-8.78.92-13.18 1.25-2.85.21-5.7-.04-8.5-.65-1.28-.28-2.54-.63-3.97-.98.03.81.02 1.53.11 2.23.33 2.67 1.01 5.18 3.08 7.11 1.27 1.18 2.71 2.06 4.36 2.58 2.42.76 4.92.97 7.43.77 2.84-.23 5.67-.58 8.5-.88.37-.04.74-.04 1.18-.06v41.99zM13.626 45.27c.07.147.126.208.126.27 0 2.57.07 5.145-.03 7.713-.088 2.227-.636 4.338-2.377 5.937-.03.027-.004.115-.004.24 3.18-.873 6.23-1.974 8.85-4.02 1.34-1.04 2.44-2.274 3.23-3.774.58-1.11 1.12-2.26 1.14-3.54.1-7.16.19-14.32.25-21.48.02-2.212.26-4.365 1.24-6.387.05-.11.03-.24.05-.43-2.09.57-3.91 1.48-5.66 2.55-3.6 2.19-5.68 5.42-6.45 9.53-.15.81-.23 1.64-.35 2.48-.87.1-1.7.17-2.52.29-3.12.43-5.1 2.2-5.85 5.27-.73 3.02-.42 6 .43 8.95.01.03.1.05.22.11.05-.33.09-.63.14-.93.25-1.51 1.23-2.52 2.7-2.81 1.66-.34 3.31-.03 4.91.02z"/><path fill-rule="evenodd" clip-rule="evenodd" d="M76.157 67.213c-3.945-.572-8.33 1.574-12.318 6.007-.06-.085-.14-.158-.13-.227.16-3.51.78-6.915 2.52-10.02 1.88-3.344 4.64-5.578 8.42-6.478.23-.056.48-.086.72-.123.23-.036.47-.066.77-.108V42.88c-1.75-.272-3.44-.16-5.06.605-1.66.784-2.5 2.22-2.91 4.034-.19-.18-.29-.24-.33-.32-1.34-2.84-1.93-5.81-1.32-8.93.64-3.28 3.34-5.66 6.67-5.94.72-.06 1.46-.04 2.19-.07.23-.01.46-.08.72-.12.02-.25.05-.45.06-.66.04-2.19.12-4.38.09-6.58-.02-1.49-.1-3-.33-4.46-.15-.91-.54-1.8-.98-2.62-2.07-3.79-7.51-3.58-9.48-.34-.38.62-.73 1.27-.98 1.95-.25.67-.36 1.4-.71 2.14-.17-.76-.41-1.51-.5-2.28-1.05-8.44 6.57-14.78 14.08-13.59 2.42.38 4.26 1.56 5.83 3.33 2.04 2.304 2.9 5.1 3.35 8.07.11.75.2 1.506.31 2.393.3-.146.54-.23.75-.37 1.2-.83 2.38-1.69 3.6-2.5.49-.325.68-.7.67-1.29-.03-1.594-.01-3.19-.01-4.874h1.42v4.19l.27.14L107.9 4.44c3.63 4.9 8.71 7.22 14.62 8.29-.35.38-.57.64-.813.88-1.463 1.44-2.92 2.886-4.4 4.307-.383.36-.546.74-.544 1.28.04 11.82.05 23.65.12 35.48.01 1.92.63 3.76 1.29 5.56.116.32.246.63.42 1.08-8.44.5-14.034 5.15-18.196 12.1-2.22-1.36-4.395-2.77-7.102-3.53v20.68c-4.638.21-7.943-1.974-10.78-5.275-2.77 3.563-6.035 5.98-10.773 5.64.047-.166.04-.284.1-.35 2.447-2.89 3.555-6.328 4.09-10 .427-2.955.56-10.298.21-13.395zm17.48-11.37c4.78 1.32 8.608 4.155 12.56 7.044V19c-3.87-.13-6.383-2.173-8.03-5.56-1.273.974-2.4 1.9-3.595 2.728-.705.49-.954 1.043-.952 1.9.026 12.172.02 24.344.02 36.516-.002.38-.002.76-.002 1.258zM91.817 18c-1.31.973-2.38 1.86-3.545 2.602-.898.575-1.163 1.274-1.16 2.317.03 16.97.02 33.95.023 50.93 0 2.36.012 4.73.06 7.09.037 1.76.397 3.45 1.288 5 .73 1.26 1.813 2.04 3.335 2.43V18zM29.56 58.45V16.467c-.44.022-.812.023-1.18.06-2.834.294-5.663.647-8.502.876-2.51.203-5.005-.005-7.425-.77-1.65-.52-3.087-1.395-4.36-2.578C6.02 12.125 5.35 9.61 5.017 6.943c-.088-.707-.072-1.427-.108-2.236 1.43.356 2.69.703 3.97.982 2.8.61 5.65.86 8.5.65 4.4-.33 8.78-.83 13.18-1.26 4.11-.41 8.23-.96 12.38-.51 5.11.55 8.92 3.15 11.26 7.73 1.39 2.72 2.03 5.7 2.27 8.73.24 3.08.37 6.18.39 9.27.05 7.93.06 15.86-.01 23.79-.02 2.56.51 4.96 1.51 7.28.16.37.3.75.51 1.27-9.17 1.35-17.54 4.33-24.44 10.57-9.73-5.6-19.43-5.67-29.17-.37.18-1.13 3.35-5.08 6.05-7.48 2.52-2.24 5.32-4.01 8.47-5.23 3.11-1.21 6.36-1.65 9.74-1.7zm1.722-.003c.3.07.562.153.83.192 3.056.44 5.817 1.6 8.267 3.47.9.69 1.76 1.47 2.56 2.28.44.44.83.56 1.36.26.12-.07.25-.11.38-.16 1.43-.6 1.28-.28 1.28-1.83-.03-12.73-.07-25.45-.08-38.18 0-1.34-.21-2.61-.54-3.9-.7-2.66-2.44-4.16-5.01-4.74-3.01-.68-6-.04-9.06.25v42.32z"/><path fill-rule="evenodd" clip-rule="evenodd" d="M13.626 45.27c-1.607-.044-3.252-.354-4.912-.02-1.475.297-2.446 1.306-2.698 2.812-.05.3-.09.6-.14.93-.12-.06-.203-.074-.214-.11-.853-2.95-1.162-5.932-.43-8.952.744-3.066 2.73-4.844 5.85-5.275.822-.113 1.647-.19 2.522-.288.12-.843.204-1.668.357-2.48.78-4.108 2.85-7.337 6.46-9.534 1.76-1.07 3.58-1.98 5.67-2.553-.02.193.01.328-.04.43-.97 2.02-1.21 4.173-1.23 6.387-.06 7.16-.14 14.32-.24 21.48-.02 1.28-.55 2.43-1.14 3.54-.78 1.5-1.89 2.734-3.23 3.774-2.62 2.05-5.67 3.15-8.84 4.02 0-.12-.02-.21.01-.24 1.74-1.6 2.29-3.71 2.38-5.93.1-2.56.03-5.14.03-7.71 0-.06-.05-.12-.12-.27z"/><path clip-rule="evenodd" fill="none" d="M93.638 55.842v-1.258c0-12.172.008-24.344-.02-36.516 0-.857.248-1.412.953-1.9 1.2-.828 2.33-1.753 3.6-2.73 1.65 3.39 4.16 5.43 8.03 5.562v43.887c-3.95-2.888-7.78-5.723-12.56-7.045zM91.815 18v70.385c-1.52-.394-2.606-1.17-3.334-2.434-.89-1.54-1.25-3.24-1.28-5-.05-2.36-.06-4.73-.06-7.09 0-16.98.01-33.95-.02-50.93 0-1.04.27-1.74 1.16-2.31 1.17-.74 2.24-1.63 3.55-2.6zM31.282 58.447v-42.32c3.056-.29 6.045-.935 9.056-.256 2.566.58 4.312 2.09 5.008 4.74.338 1.29.54 2.56.542 3.9.013 12.73.055 25.45.08 38.18.004 1.56.156 1.23-1.28 1.83-.128.06-.264.09-.385.16-.53.3-.918.19-1.36-.26-.804-.81-1.655-1.59-2.563-2.28-2.45-1.87-5.21-3.03-8.268-3.48-.27-.03-.53-.12-.83-.19z"/></svg>